<svg width="100" height="100" viewBox="0 0 100 100" fill="none" xmlns="http://www.w3.org/2000/svg">
<path fill-rule="evenodd" clip-rule="evenodd" d="M70.3453 31.979C69.1876 31.979 68.0313 32.1028 66.9009 32.346C63.287 23.9833 54.8556 18.4039 45.7318 18.4039C34.3472 18.4039 24.8801 26.4196 22.9941 37.5513C22.9683 37.5513 22.941 37.5513 22.9151 37.5513C15.4705 37.5513 9.41333 43.6057 9.41333 51.0468C9.41333 58.4878 15.4705 64.5408 22.9151 64.5408H70.3453C79.324 64.5408 86.6294 57.2363 86.6294 48.2592C86.6294 39.2822 79.324 31.979 70.3453 31.979Z" fill="white"/>
<path fill-rule="evenodd" clip-rule="evenodd" d="M23.1436 73.5192C24.5225 76.0124 25.9014 78.5041 27.2818 80.9973C28.2413 82.7324 30.9215 81.1836 29.9606 79.4471C28.5817 76.9539 27.2028 74.4608 25.8224 71.9676C24.8629 70.2325 22.1827 71.7813 23.1436 73.5192Z" fill="white"/>
<path fill-rule="evenodd" clip-rule="evenodd" d="M38.517 73.5192C39.8959 76.0124 41.2748 78.5041 42.6537 80.9973C43.6146 82.7324 46.2949 81.1836 45.334 79.4471C43.9551 76.9539 42.5762 74.4608 41.1958 71.9676C40.2363 70.2325 37.5546 71.7813 38.517 73.5192Z" fill="white"/>
<path fill-rule="evenodd" clip-rule="evenodd" d="M54.6747 73.5192C56.055 76.0124 57.4339 78.5041 58.8128 80.9973C59.7723 82.7324 62.454 81.1836 61.4931 79.4471C60.1142 76.9539 58.7338 74.4608 57.3549 71.9676C56.3954 70.2325 53.7137 71.7813 54.6747 73.5192Z" fill="white"/>
<path fill-rule="evenodd" clip-rule="evenodd" d="M70.2908 73.5192C71.6697 76.0124 73.0501 78.5041 74.429 80.9973C75.3885 82.7324 78.0702 81.1836 77.1092 79.4471C75.7289 76.9539 74.35 74.4608 72.9711 71.9676C72.0101 70.2325 69.3299 71.7813 70.2908 73.5192Z" fill="white"/>
</svg>
