<svg width="100" height="100" viewBox="0 0 100 100" fill="none" xmlns="http://www.w3.org/2000/svg">
<path fill-rule="evenodd" clip-rule="evenodd" d="M74.9506 74.8616L64.0325 64.7979C63.355 64.1741 63.321 63.118 63.9597 62.453C64.5985 61.7896 65.677 61.7579 66.3562 62.3833L77.2743 72.4454C77.9518 73.0708 77.9842 74.1253 77.3454 74.7903C76.7083 75.4553 75.6298 75.487 74.9506 74.8616Z" fill="#F8E71C"/>
<path fill-rule="evenodd" clip-rule="evenodd" d="M33.238 36.6652L22.3198 26.6031C21.6407 25.9777 21.6083 24.9232 22.2471 24.2582C22.8858 23.5932 23.9627 23.5615 24.6419 24.187L35.56 34.2506C36.2391 34.876 36.2715 35.9305 35.6328 36.5955C34.994 37.259 33.9155 37.2906 33.238 36.6652Z" fill="#F8E71C"/>
<path fill-rule="evenodd" clip-rule="evenodd" d="M24.5109 74.7365L34.5316 63.8146C35.1541 63.137 36.2311 63.08 36.9248 63.6896C37.6185 64.2991 37.6751 65.3536 37.0525 66.0329L27.0318 76.9547C26.4093 77.6324 25.3323 77.6894 24.6402 77.0798C23.9465 76.4702 23.8883 75.4157 24.5109 74.7365Z" fill="#F8E71C"/>
<path fill-rule="evenodd" clip-rule="evenodd" d="M62.54 33.0155L72.5607 22.0937C73.1832 21.416 74.2601 21.359 74.9539 21.9686C75.6459 22.5782 75.7041 23.6327 75.0816 24.3119L65.0609 35.2338C64.4384 35.9114 63.3614 35.9684 62.6677 35.3589C61.9756 34.7493 61.9174 33.6948 62.54 33.0155Z" fill="#F8E71C"/>
<path fill-rule="evenodd" clip-rule="evenodd" d="M48.8276 84.9568L48.6562 70.2761C48.6465 69.3641 49.4001 68.6089 50.3315 68.5994C51.2629 68.5883 52.0342 69.3261 52.0455 70.2381L52.2169 84.9188C52.2266 85.8324 51.4731 86.586 50.5417 86.5971C49.6103 86.6082 48.8389 85.8704 48.8276 84.9568Z" fill="#F8E71C"/>
<path fill-rule="evenodd" clip-rule="evenodd" d="M47.99 29.043L47.8186 14.3623C47.8073 13.4487 48.5608 12.695 49.4922 12.684C50.4236 12.6729 51.1949 13.4107 51.2063 14.3243L51.3777 29.005C51.389 29.917 50.6338 30.6722 49.7024 30.6817C48.771 30.6928 47.9997 29.955 47.99 29.043Z" fill="#F8E71C"/>
<path fill-rule="evenodd" clip-rule="evenodd" d="M13.9695 47.9591L28.9642 48.0066C29.8956 48.0098 30.6556 48.7587 30.6523 49.6707C30.6507 50.5827 29.8859 51.3269 28.9528 51.3237L13.9598 51.2778C13.0268 51.2746 12.2668 50.5257 12.27 49.6137C12.2733 48.7001 13.0381 47.9559 13.9695 47.9591Z" fill="#F8E71C"/>
<path fill-rule="evenodd" clip-rule="evenodd" d="M71.0811 47.9575L86.0757 48.0034C87.0071 48.0066 87.7671 48.7555 87.7639 49.6675C87.7607 50.5811 86.9958 51.3253 86.0644 51.3221L71.0698 51.2746C70.1384 51.2714 69.3784 50.5225 69.3816 49.6105C69.3848 48.6985 70.1497 47.9544 71.0811 47.9575Z" fill="#F8E71C"/>
<path fill-rule="evenodd" clip-rule="evenodd" d="M49.5974 34.2585C40.9366 34.2585 33.8896 41.1587 33.8896 49.639C33.8896 58.121 40.9366 65.0211 49.5974 65.0211C58.2598 65.0211 65.3068 58.121 65.3068 49.639C65.3068 41.1587 58.2598 34.2585 49.5974 34.2585Z" fill="#F8E71C"/>
</svg>
