<svg width="100" height="100" viewBox="0 0 100 100" fill="none" xmlns="http://www.w3.org/2000/svg">
<path fill-rule="evenodd" clip-rule="evenodd" d="M83.1073 52.74C82.0115 52.74 80.9175 52.86 79.8482 53.095C76.429 45.0233 68.4521 39.64 59.8201 39.64C49.0478 39.64 40.0908 47.375 38.3086 58.1183C38.2822 58.1183 38.2574 58.1183 38.2327 58.1183C31.1898 58.1183 25.4587 63.9617 25.4587 71.1417C25.4587 78.3217 31.1898 84.1633 38.2327 84.1633H83.1073C91.6023 84.1633 98.5132 77.115 98.5132 68.4517C98.5132 59.7883 91.6023 52.74 83.1073 52.74Z" fill="white"/>
<path fill-rule="evenodd" clip-rule="evenodd" d="M20.2871 37.2683C20.8548 37.895 21.8268 37.9383 22.4472 37.365C23.0677 36.79 23.1106 35.8083 22.5429 35.1817L13.4043 25.1017C12.8367 24.475 11.8631 24.4317 11.2442 25.0067C10.6238 25.58 10.5809 26.5617 11.1485 27.1883L20.2871 37.2683Z" fill="#F8E71C"/>
<path fill-rule="evenodd" clip-rule="evenodd" d="M19.5957 62.56L9.83004 72.0217C9.22278 72.61 9.20133 73.5917 9.78383 74.205C10.3663 74.8184 11.3399 74.8384 11.9472 74.25L21.7129 64.79C22.3185 64.2017 22.3399 63.2184 21.7574 62.605C21.1749 61.9934 20.2013 61.9717 19.5957 62.56Z" fill="#F8E71C"/>
<path fill-rule="evenodd" clip-rule="evenodd" d="M35.5148 32.8266C36.3548 32.8799 37.0841 32.2299 37.1369 31.3833L37.9868 17.7416C38.0396 16.8933 37.396 16.1566 36.5577 16.1033C35.7178 16.0499 34.9884 16.6999 34.9356 17.5483L34.0858 31.1883C34.033 32.0366 34.6766 32.7733 35.5148 32.8266Z" fill="#F8E71C"/>
<path fill-rule="evenodd" clip-rule="evenodd" d="M17.071 49.1666C17.137 48.32 16.5033 47.5733 15.665 47.5066L2.17328 46.45C1.335 46.3833 0.595724 47.0233 0.529718 47.87C0.465361 48.7166 1.09737 49.4633 1.93731 49.53L15.4291 50.5866C16.2673 50.6533 17.0066 50.0133 17.071 49.1666Z" fill="#F8E71C"/>
<path fill-rule="evenodd" clip-rule="evenodd" d="M40.9406 38.1267C39.2145 37.1633 37.2689 36.2967 35.1765 36.14C27.3812 35.5533 20.566 41.4833 19.9868 49.3567C19.6122 54.4433 21.9389 59.1067 25.7293 61.935C26.1435 61.1933 26.7013 60.3817 27.4455 59.5833C24.429 57.3317 22.5759 53.6217 22.8746 49.5733C23.3366 43.3083 28.759 38.59 34.9604 39.0567C36.1765 39.1483 35.8465 38.8333 36.9158 39.2783L37.33 39.4367C37.33 39.4367 38.6303 38.0883 40.9406 38.1267Z" fill="#F8E71C"/>
<path fill-rule="evenodd" clip-rule="evenodd" d="M90.6865 48.1751C90.6865 41.2384 85.1535 35.5951 78.3515 35.5951C77.4736 35.5951 76.5973 35.6901 75.7409 35.8784C73.0049 29.4151 66.6171 25.1034 59.7046 25.1034C51.0808 25.1034 43.9076 31.2984 42.4802 39.9001C42.4604 39.9001 42.4389 39.9001 42.4191 39.9001C36.7805 39.9001 32.1914 44.5784 32.1914 50.3284C32.1914 52.0451 32.6122 53.6567 33.3366 55.0834C33.9158 54.7934 34.7277 54.5034 35.7739 54.3367C35.0858 53.1601 34.6733 51.7967 34.6733 50.3284C34.6733 45.9684 38.1485 42.4201 42.4191 42.4201C42.7046 42.4201 43.0165 42.4434 43.3993 42.4917L44.6601 42.6501L44.7871 41.3667C45.566 33.5334 51.9785 27.6251 59.7046 27.6251C66.0247 27.6251 71.698 31.7167 73.8218 37.8067L74.2228 38.9567L75.3663 38.5867C76.3366 38.2734 77.3399 38.1151 78.3515 38.1151C83.7855 38.1151 88.2063 42.6284 88.2063 48.1751C88.2063 48.7401 88.1518 49.2917 88.0627 49.8317C88.7442 49.9934 89.5973 50.2751 90.4142 50.7501C90.5858 49.9184 90.6865 49.0584 90.6865 48.1751Z" fill="white"/>
</svg>
