<svg width="100" height="100" viewBox="0 0 100 100" fill="none" xmlns="http://www.w3.org/2000/svg">
<path fill-rule="evenodd" clip-rule="evenodd" d="M20.7889 46.0435H14.3364C10.1306 46.0435 6.70767 42.5398 6.70767 38.2334C6.70767 33.9255 10.1306 30.4218 14.3364 30.4218C14.6171 30.4218 14.9233 30.4436 15.302 30.4912L16.5428 30.6491L16.6676 29.3809C17.4344 21.6415 23.7485 15.8057 31.3572 15.8057C34.6606 15.8057 37.7787 16.9541 40.2952 18.9229C40.8391 18.297 41.4084 17.7038 42.01 17.1527C39.0208 14.7348 35.277 13.3157 31.3572 13.3157C22.8636 13.3157 15.8015 19.4345 14.3955 27.9318C14.3754 27.9318 14.3566 27.9318 14.3364 27.9318C8.78373 27.9318 4.26501 32.554 4.26501 38.2334C4.26501 43.9127 8.78373 48.5335 14.3364 48.5335H20.8453C20.7875 48.0178 20.7486 47.4967 20.7486 46.9633C20.7486 46.6531 20.7687 46.3483 20.7889 46.0435Z" fill="white"/>
<path fill-rule="evenodd" clip-rule="evenodd" d="M80.9932 27.9577C79.9108 27.9577 78.8298 28.0761 77.773 28.3101C74.3944 20.3081 66.5118 14.9702 57.982 14.9702C47.3385 14.9702 38.4877 22.6389 36.7245 33.2887C36.7004 33.2887 36.6749 33.2887 36.6507 33.2887C29.6907 33.2887 24.0278 39.081 24.0278 46.2C24.0278 53.3189 29.6907 59.1085 36.6507 59.1085H80.9932C89.3874 59.1085 96.2171 52.1216 96.2171 43.5331C96.2171 34.9446 89.3874 27.9577 80.9932 27.9577Z" fill="white"/>
<path fill-rule="evenodd" clip-rule="evenodd" d="M36.8642 67.6997C38.1533 70.0836 39.4424 72.4688 40.7329 74.854C41.63 76.514 44.1357 75.0323 43.2374 73.3696C41.9482 70.9857 40.6591 68.6005 39.3686 66.2152C38.4716 64.5566 35.9658 66.0384 36.8642 67.6997Z" fill="white"/>
<path fill-rule="evenodd" clip-rule="evenodd" d="M80.9422 67.6997C82.2313 70.0836 83.5218 72.4688 84.8109 74.854C85.708 76.514 88.2151 75.0323 87.3167 73.3696C86.0262 70.9857 84.7371 68.6005 83.4479 66.2152C82.5496 64.5566 80.0438 66.0384 80.9422 67.6997Z" fill="white"/>
<path fill-rule="evenodd" clip-rule="evenodd" d="M77.7045 75.5547C78.9936 77.94 80.2828 80.3252 81.5733 82.7104C82.4703 84.3691 84.9761 82.8873 84.0777 81.2259C82.7886 78.8407 81.4994 76.4568 80.2089 74.0716C79.3119 72.4116 76.8061 73.8934 77.7045 75.5547Z" fill="white"/>
<path fill-rule="evenodd" clip-rule="evenodd" d="M14.9354 58.1819C16.2259 60.5672 17.515 62.9524 18.8041 65.3376C19.7012 66.9963 22.2083 65.5145 21.3099 63.8531C20.0208 61.4679 18.7303 59.084 17.4411 56.6988C16.5441 55.0388 14.037 56.5206 14.9354 58.1819Z" fill="white"/>
<path fill-rule="evenodd" clip-rule="evenodd" d="M26.7471 66.6329C28.0362 69.0182 29.3254 71.402 30.6159 73.7873C31.5129 75.4473 34.0187 73.9655 33.1203 72.3041C31.8312 69.9189 30.542 67.5337 29.2515 65.1485C28.3545 63.4885 25.8487 64.9716 26.7471 66.6329Z" fill="white"/>
<path fill-rule="evenodd" clip-rule="evenodd" d="M23.3684 76.1493C24.6576 78.5346 25.9467 80.9198 27.2372 83.305C28.1342 84.9637 30.6413 83.4819 29.7416 81.8206C28.4525 79.4353 27.1633 77.0501 25.8742 74.6662C24.9758 73.0062 22.4701 74.488 23.3684 76.1493Z" fill="white"/>
<path fill-rule="evenodd" clip-rule="evenodd" d="M36.8642 77.7904C38.1533 80.1743 39.4424 82.5595 40.7329 84.9447C41.63 86.6047 44.1357 85.123 43.2374 83.4603C41.9482 81.0764 40.6591 78.6912 39.3686 76.3059C38.4716 74.6459 35.9658 76.129 36.8642 77.7904Z" fill="white"/>
<path fill-rule="evenodd" clip-rule="evenodd" d="M64.856 58.9629L64.5471 59.1085H64.9245L64.856 58.9629Z" fill="white"/>
<path fill-rule="evenodd" clip-rule="evenodd" d="M50.8581 58.8309L50.4257 59.1085H51.0326L50.8581 58.8309Z" fill="white"/>
<path fill-rule="evenodd" clip-rule="evenodd" d="M70.9728 77.6951H66.2996C65.6806 77.6951 65.1058 78.0066 64.7621 78.5305C64.4196 79.053 64.3552 79.7115 64.5942 80.2912L68.9813 90.9233L51.1173 71.7286H55.589C56.2631 71.7286 56.8849 71.3558 57.2085 70.7571C57.5335 70.157 57.5106 69.4277 57.1481 68.8494L52.7314 61.8135H49.9799L54.7269 69.376H50.0229C49.2843 69.376 48.6169 69.8209 48.3255 70.5067C48.0328 71.1938 48.1711 71.9898 48.6773 72.5341L69.0726 94.4488C69.4379 94.842 69.92 95.0448 70.4115 95.0448C70.7579 95.0448 71.1084 94.9441 71.424 94.7359C72.1854 94.2352 72.4741 93.2922 72.1236 92.4418L67.01 80.0476H71.7167C72.3532 80.0476 72.9374 79.7211 73.2785 79.1768C73.6182 78.6325 73.6612 77.959 73.3899 77.378L66.1774 61.8135H63.6139L70.9728 77.6951Z" fill="#F8E71C"/>
</svg>
