<svg width="825" height="283" viewBox="0 0 825 283" fill="none" xmlns="http://www.w3.org/2000/svg">
<path fill-rule="evenodd" clip-rule="evenodd" d="M165.789 229.044H159.336C155.131 229.044 151.708 225.54 151.708 221.233C151.708 216.926 155.131 213.422 159.336 213.422C159.617 213.422 159.923 213.444 160.302 213.491L161.543 213.649L161.668 212.381C162.434 204.642 168.749 198.806 176.357 198.806C179.661 198.806 182.779 199.954 185.295 201.923C185.839 201.297 186.408 200.704 187.01 200.153C184.021 197.735 180.277 196.316 176.357 196.316C167.864 196.316 160.802 202.435 159.396 210.932C159.375 210.932 159.357 210.932 159.336 210.932C153.784 210.932 149.265 215.554 149.265 221.233C149.265 226.913 153.784 231.534 159.336 231.534H165.845C165.788 231.018 165.749 230.497 165.749 229.963C165.749 229.653 165.769 229.348 165.789 229.044Z" fill="white"/>
<path fill-rule="evenodd" clip-rule="evenodd" d="M225.993 210.958C224.911 210.958 223.83 211.076 222.773 211.31C219.394 203.308 211.512 197.97 202.982 197.97C192.338 197.97 183.488 205.639 181.725 216.289C181.7 216.289 181.675 216.289 181.651 216.289C174.691 216.289 169.028 222.081 169.028 229.2C169.028 236.319 174.691 242.109 181.651 242.109H225.993C234.387 242.109 241.217 235.122 241.217 226.533C241.217 217.945 234.387 210.958 225.993 210.958Z" fill="white"/>
<path fill-rule="evenodd" clip-rule="evenodd" d="M181.864 250.7C183.153 253.084 184.442 255.469 185.733 257.854C186.63 259.514 189.136 258.032 188.237 256.37C186.948 253.986 185.659 251.6 184.369 249.215C183.472 247.557 180.966 249.038 181.864 250.7Z" fill="white"/>
<path fill-rule="evenodd" clip-rule="evenodd" d="M225.942 250.7C227.231 253.084 228.522 255.469 229.811 257.854C230.708 259.514 233.215 258.032 232.317 256.37C231.026 253.986 229.737 251.6 228.448 249.215C227.55 247.557 225.044 249.038 225.942 250.7Z" fill="white"/>
<path fill-rule="evenodd" clip-rule="evenodd" d="M222.704 258.555C223.994 260.94 225.283 263.325 226.573 265.71C227.47 267.369 229.976 265.887 229.078 264.226C227.789 261.841 226.499 259.457 225.209 257.072C224.312 255.412 221.806 256.893 222.704 258.555Z" fill="white"/>
<path fill-rule="evenodd" clip-rule="evenodd" d="M159.935 241.182C161.226 243.567 162.515 245.952 163.804 248.338C164.701 249.996 167.208 248.515 166.31 246.853C165.021 244.468 163.73 242.084 162.441 239.699C161.544 238.039 159.037 239.521 159.935 241.182Z" fill="white"/>
<path fill-rule="evenodd" clip-rule="evenodd" d="M171.747 249.633C173.036 252.018 174.325 254.402 175.616 256.787C176.513 258.447 179.019 256.966 178.12 255.304C176.831 252.919 175.542 250.534 174.252 248.148C173.354 246.488 170.849 247.972 171.747 249.633Z" fill="white"/>
<path fill-rule="evenodd" clip-rule="evenodd" d="M168.368 259.149C169.658 261.535 170.947 263.92 172.237 266.305C173.134 267.964 175.641 266.482 174.742 264.821C173.452 262.435 172.163 260.05 170.874 257.666C169.976 256.006 167.47 257.488 168.368 259.149Z" fill="white"/>
<path fill-rule="evenodd" clip-rule="evenodd" d="M181.864 260.79C183.153 263.174 184.442 265.56 185.733 267.945C186.63 269.605 189.136 268.123 188.237 266.46C186.948 264.076 185.659 261.691 184.369 259.306C183.472 257.646 180.966 259.129 181.864 260.79Z" fill="white"/>
<path fill-rule="evenodd" clip-rule="evenodd" d="M209.856 241.963L209.547 242.108H209.924L209.856 241.963Z" fill="white"/>
<path fill-rule="evenodd" clip-rule="evenodd" d="M195.858 241.831L195.426 242.109H196.033L195.858 241.831Z" fill="white"/>
<path fill-rule="evenodd" clip-rule="evenodd" d="M215.973 260.695H211.3C210.681 260.695 210.106 261.007 209.762 261.53C209.42 262.053 209.355 262.712 209.594 263.291L213.981 273.923L196.117 254.729H200.589C201.263 254.729 201.885 254.356 202.209 253.757C202.533 253.157 202.511 252.428 202.148 251.849L197.731 244.813H194.98L199.727 252.376H195.023C194.284 252.376 193.617 252.821 193.326 253.507C193.033 254.194 193.171 254.99 193.677 255.534L214.073 277.449C214.438 277.842 214.92 278.045 215.411 278.045C215.758 278.045 216.108 277.944 216.424 277.736C217.185 277.235 217.474 276.292 217.124 275.442L212.01 263.048H216.717C217.353 263.048 217.937 262.721 218.278 262.177C218.618 261.633 218.661 260.959 218.39 260.378L211.177 244.813H208.614L215.973 260.695Z" fill="#F8E71C"/>
<path fill-rule="evenodd" clip-rule="evenodd" d="M505.345 27.697C504.16 27.697 502.978 27.8225 501.822 28.0735C498.128 19.4822 489.508 13.7516 480.18 13.7516C468.542 13.7516 458.862 21.9847 456.935 33.4215C456.908 33.42 456.88 33.42 456.854 33.42C449.243 33.42 443.051 39.6404 443.051 47.2842C443.051 54.9266 449.243 61.1439 456.854 61.1439H505.345C514.523 61.1439 521.992 53.6409 521.992 44.4205C521.992 35.1985 514.523 27.697 505.345 27.697Z" fill="white"/>
<path fill-rule="evenodd" clip-rule="evenodd" d="M457.088 70.3674C458.497 72.9281 459.908 75.4888 461.317 78.0495C462.298 79.8312 465.04 78.2409 464.057 76.4562C462.646 73.8955 461.237 71.3347 459.826 68.774C458.845 66.9924 456.105 68.5842 457.088 70.3674Z" fill="white"/>
<path fill-rule="evenodd" clip-rule="evenodd" d="M472.803 70.3674C474.214 72.9281 475.625 75.4888 477.034 78.0495C478.015 79.8312 480.757 78.2409 479.774 76.4562C478.363 73.8955 476.954 71.3347 475.543 68.774C474.562 66.9924 471.822 68.5842 472.803 70.3674Z" fill="white"/>
<path fill-rule="evenodd" clip-rule="evenodd" d="M489.323 70.3674C490.734 72.9281 492.143 75.4888 493.554 78.0495C494.535 79.8312 497.275 78.2409 496.294 76.4562C494.883 73.8955 493.472 71.3347 492.063 68.774C491.082 66.9924 488.34 68.5842 489.323 70.3674Z" fill="white"/>
<path fill-rule="evenodd" clip-rule="evenodd" d="M505.288 70.3674C506.698 72.9281 508.108 75.4888 509.518 78.0495C510.5 79.8312 513.24 78.2409 512.258 76.4562C510.848 73.8955 509.437 71.3347 508.028 68.774C507.046 66.9924 504.305 68.5842 505.288 70.3674Z" fill="white"/>
<path fill-rule="evenodd" clip-rule="evenodd" d="M470.003 79.4408C471.412 82.0015 472.823 84.5622 474.232 87.123C475.214 88.9046 477.955 87.3143 476.972 85.5296C475.563 82.9689 474.152 80.4082 472.742 77.8474C471.762 76.0658 469.02 77.6561 470.003 79.4408Z" fill="white"/>
<path fill-rule="evenodd" clip-rule="evenodd" d="M485.717 79.4362C487.128 81.997 488.537 84.5577 489.948 87.1184C490.929 88.9015 493.669 87.3097 492.688 85.525C491.277 82.9643 489.866 80.4036 488.457 77.8429C487.475 76.0612 484.734 77.6531 485.717 79.4362Z" fill="white"/>
<path fill-rule="evenodd" clip-rule="evenodd" d="M501.748 78.8025C503.157 81.3632 504.568 83.9239 505.977 86.4847C506.958 88.2663 509.7 86.676 508.717 84.8913C507.306 82.3306 505.897 79.7699 504.486 77.2091C503.505 75.4275 500.765 77.0178 501.748 78.8025Z" fill="white"/>
<path fill-rule="evenodd" clip-rule="evenodd" d="M214.053 26.7369C212.925 26.7369 211.798 26.8594 210.696 27.1014C207.173 18.8245 198.955 13.3032 190.063 13.3032C178.965 13.3032 169.737 21.2354 167.901 32.2526C167.874 32.2511 167.849 32.2511 167.822 32.2511C160.566 32.2511 154.664 38.2425 154.664 45.606C154.664 52.9696 160.566 58.9595 167.822 58.9595H214.053C222.804 58.9595 229.925 51.7311 229.925 42.8475C229.925 33.9654 222.804 26.7369 214.053 26.7369Z" fill="white"/>
<path d="M193.437 68.1935C193.437 69.8725 192.082 71.2349 190.412 71.2349C188.742 71.2349 187.387 69.8725 187.387 68.1935C187.387 66.5145 188.742 65.1521 190.412 65.1521C192.082 65.1521 193.437 66.5145 193.437 68.1935" stroke="white" stroke-width="2"/>
<path d="M199.487 82.7898C199.487 84.4702 198.133 85.8312 196.463 85.8312C194.791 85.8312 193.437 84.4702 193.437 82.7898C193.437 81.1107 194.791 79.7498 196.463 79.7498C198.133 79.7498 199.487 81.1107 199.487 82.7898" stroke="white" stroke-width="2"/>
<path d="M214.355 68.1935C214.355 69.8725 213.001 71.2349 211.329 71.2349C209.659 71.2349 208.305 69.8725 208.305 68.1935C208.305 66.5145 209.659 65.1521 211.329 65.1521C213.001 65.1521 214.355 66.5145 214.355 68.1935" stroke="white" stroke-width="2"/>
<path d="M219.195 82.7898C219.195 84.4702 217.841 85.8312 216.169 85.8312C214.499 85.8312 213.145 84.4702 213.145 82.7898C213.145 81.1107 214.499 79.7498 216.169 79.7498C217.841 79.7498 219.195 81.1107 219.195 82.7898" stroke="white" stroke-width="2"/>
<path d="M174.46 69.5124C174.46 71.1914 173.105 72.5538 171.435 72.5538C169.765 72.5538 168.41 71.1914 168.41 69.5124C168.41 67.8333 169.765 66.4709 171.435 66.4709C173.105 66.4709 174.46 67.8333 174.46 69.5124" stroke="white" stroke-width="2"/>
<path d="M180.51 84.1085C180.51 85.7875 179.156 87.1499 177.484 87.1499C175.814 87.1499 174.46 85.7875 174.46 84.1085C174.46 82.4294 175.814 81.0685 177.484 81.0685C179.156 81.0685 180.51 82.4294 180.51 84.1085" stroke="white" stroke-width="2"/>
<path fill-rule="evenodd" clip-rule="evenodd" d="M450.592 249.807H522.351C523.383 249.807 524.228 249.015 524.228 248.044C524.228 247.076 523.383 246.283 522.351 246.283H450.592C449.56 246.283 448.715 247.076 448.715 248.044C448.715 249.015 449.56 249.807 450.592 249.807Z" fill="white"/>
<path fill-rule="evenodd" clip-rule="evenodd" d="M458.95 261.192H513.995C515.027 261.192 515.872 260.4 515.872 259.429C515.872 258.461 515.027 257.668 513.995 257.668H458.95C457.917 257.668 457.071 258.461 457.071 259.429C457.071 260.4 457.917 261.192 458.95 261.192Z" fill="white"/>
<path fill-rule="evenodd" clip-rule="evenodd" d="M507.749 206.68C506.576 206.68 505.406 206.802 504.262 207.04C500.605 198.843 492.071 193.375 482.839 193.375C471.317 193.375 461.735 201.232 459.828 212.142C459.8 212.142 459.774 212.142 459.747 212.142C452.214 212.142 446.083 218.075 446.083 225.368C446.083 232.662 452.214 238.593 459.747 238.593H507.749C516.836 238.593 524.228 231.435 524.228 222.637C524.228 213.838 516.836 206.68 507.749 206.68Z" fill="white"/>
<path fill-rule="evenodd" clip-rule="evenodd" d="M309.051 243.229H302.42C298.097 243.229 294.58 239.695 294.58 235.351C294.58 231.005 298.097 227.469 302.42 227.469C302.708 227.469 303.024 227.493 303.412 227.54L304.688 227.698L304.815 226.421C305.604 218.613 312.094 212.726 319.914 212.726C323.309 212.726 326.514 213.885 329.102 215.871C329.66 215.239 330.245 214.641 330.862 214.085C327.79 211.647 323.943 210.214 319.914 210.214C311.184 210.214 303.926 216.386 302.482 224.959C302.461 224.959 302.44 224.959 302.42 224.959C296.713 224.959 292.069 229.621 292.069 235.351C292.069 241.079 296.713 245.741 302.42 245.741H309.11C309.051 245.221 309.01 244.693 309.01 244.156C309.01 243.843 309.03 243.536 309.051 243.229Z" fill="white"/>
<path fill-rule="evenodd" clip-rule="evenodd" d="M370.931 224.984C369.818 224.984 368.707 225.103 367.621 225.34C364.149 217.267 356.047 211.883 347.28 211.883C336.34 211.883 327.242 219.619 325.432 230.363C325.405 230.363 325.38 230.363 325.355 230.363C318.201 230.363 312.382 236.205 312.382 243.386C312.382 250.567 318.201 256.408 325.355 256.408H370.931C379.559 256.408 386.579 249.36 386.579 240.697C386.579 232.033 379.559 224.984 370.931 224.984Z" fill="white"/>
<path fill-rule="evenodd" clip-rule="evenodd" d="M797.036 22.266C795.901 22.266 794.768 22.3864 793.661 22.6272C790.12 14.3938 781.858 8.90161 772.918 8.90161C761.763 8.90161 752.486 16.7934 750.639 27.7512C750.612 27.7512 750.587 27.7512 750.56 27.7512C743.267 27.7512 737.332 33.711 737.332 41.0358C737.332 48.3592 743.267 54.3176 750.56 54.3176H797.036C805.833 54.3176 812.992 47.1286 812.992 38.2918C812.992 29.455 805.833 22.266 797.036 22.266Z" fill="white"/>
<path fill-rule="evenodd" clip-rule="evenodd" d="M750.786 63.1559C752.137 65.6101 753.488 68.0643 754.839 70.5185C755.78 72.2265 758.407 70.7019 757.465 68.9911C756.114 66.5369 754.761 64.0841 753.41 61.6299C752.47 59.9219 749.843 61.4465 750.786 63.1559Z" fill="white"/>
<path fill-rule="evenodd" clip-rule="evenodd" d="M796.982 63.1559C798.333 65.6101 799.685 68.0643 801.037 70.5185C801.977 72.2265 804.603 70.7019 803.662 68.9911C802.311 66.5369 800.96 64.0841 799.607 61.6299C798.667 59.9219 796.041 61.4465 796.982 63.1559Z" fill="white"/>
<path fill-rule="evenodd" clip-rule="evenodd" d="M793.588 71.2393C794.94 73.6935 796.291 76.1477 797.642 78.6005C798.584 80.3085 801.21 78.7839 800.269 77.0745C798.917 74.6203 797.566 72.1661 796.214 69.7133C795.274 68.0053 792.646 69.5299 793.588 71.2393Z" fill="white"/>
<path fill-rule="evenodd" clip-rule="evenodd" d="M740.181 62.0596C741.533 64.5124 742.884 66.9666 744.235 69.4208C745.177 71.1288 747.803 69.6042 746.862 67.8934C745.511 65.4406 744.158 62.9864 742.807 60.5322C741.867 58.8242 739.239 60.3488 740.181 62.0596Z" fill="white"/>
<path fill-rule="evenodd" clip-rule="evenodd" d="M750.786 73.5397C752.137 75.9925 753.488 78.4467 754.839 80.9009C755.78 82.6089 758.407 81.0843 757.465 79.3735C756.114 76.9207 754.761 74.4665 753.41 72.0123C752.47 70.3043 749.843 71.8289 750.786 73.5397Z" fill="white"/>
<path fill-rule="evenodd" clip-rule="evenodd" d="M780.123 54.1664L779.799 54.3176H780.195L780.123 54.1664Z" fill="white"/>
<path fill-rule="evenodd" clip-rule="evenodd" d="M765.452 54.032L764.999 54.3176H765.635L765.452 54.032Z" fill="white"/>
<path fill-rule="evenodd" clip-rule="evenodd" d="M786.532 73.4416H781.636C780.987 73.4416 780.385 73.7622 780.024 74.2998C779.664 74.8374 779.598 75.515 779.849 76.1128L784.445 87.051L765.724 67.3026H770.41C771.117 67.3026 771.767 66.919 772.108 66.303C772.448 65.6856 772.424 64.9338 772.044 64.3402L767.414 57.1008H764.532L769.507 64.882H764.577C763.801 64.882 763.103 65.3384 762.796 66.0454C762.491 66.7524 762.636 67.5714 763.167 68.1314L784.542 90.6798C784.925 91.0844 785.43 91.293 785.944 91.293C786.309 91.293 786.676 91.188 787.005 90.9752C787.805 90.46 788.107 89.4898 787.74 88.6148L782.38 75.8608H787.313C787.981 75.8608 788.593 75.5262 788.95 74.9662C789.306 74.4048 789.35 73.7118 789.067 73.1154L781.508 57.1008H778.82L786.532 73.4416Z" fill="#F8E71C"/>
<path fill-rule="evenodd" clip-rule="evenodd" d="M651.987 33.9959C650.843 33.9959 649.701 34.1193 648.585 34.3633C645.019 26.0205 636.692 20.4553 627.686 20.4553C616.444 20.4553 607.096 28.4506 605.236 39.5554C605.209 39.554 605.182 39.554 605.156 39.554C597.806 39.554 591.825 45.5944 591.825 53.0166C591.825 60.4373 597.806 66.4749 605.156 66.4749H651.987C660.853 66.4749 668.065 59.1889 668.065 50.2361C668.065 41.2819 660.853 33.9959 651.987 33.9959Z" fill="white"/>
<path d="M634.181 76.799C634.181 78.4929 632.809 79.8647 631.117 79.8647C629.425 79.8647 628.053 78.4929 628.053 76.799C628.053 75.1067 629.425 73.7349 631.117 73.7349C632.809 73.7349 634.181 75.1067 634.181 76.799" stroke="white" stroke-width="2"/>
<path d="M654.358 75.7823C654.358 77.4761 652.985 78.8479 651.293 78.8479C649.602 78.8479 648.229 77.4761 648.229 75.7823C648.229 74.0899 649.602 72.7181 651.293 72.7181C652.985 72.7181 654.358 74.0899 654.358 75.7823" stroke="white" stroke-width="2"/>
<path d="M613.944 77.1115C613.944 78.8054 612.573 80.1772 610.881 80.1772C609.188 80.1772 607.816 78.8054 607.816 77.1115C607.816 75.4192 609.188 74.0474 610.881 74.0474C612.573 74.0474 613.944 75.4192 613.944 77.1115" stroke="white" stroke-width="2"/>
<path fill-rule="evenodd" clip-rule="evenodd" d="M360.345 31.979C359.188 31.979 358.031 32.1028 356.901 32.346C353.287 23.9833 344.856 18.4039 335.732 18.4039C324.347 18.4039 314.88 26.4196 312.994 37.5513C312.968 37.5513 312.941 37.5513 312.915 37.5513C305.47 37.5513 299.413 43.6057 299.413 51.0468C299.413 58.4878 305.47 64.5408 312.915 64.5408H360.345C369.324 64.5408 376.629 57.2363 376.629 48.2592C376.629 39.2822 369.324 31.979 360.345 31.979Z" fill="white"/>
<path fill-rule="evenodd" clip-rule="evenodd" d="M313.144 73.5192C314.523 76.0124 315.901 78.5041 317.282 80.9973C318.241 82.7324 320.922 81.1836 319.961 79.4471C318.582 76.9539 317.203 74.4608 315.822 71.9676C314.863 70.2325 312.183 71.7813 313.144 73.5192Z" fill="white"/>
<path fill-rule="evenodd" clip-rule="evenodd" d="M328.517 73.5192C329.896 76.0124 331.275 78.5041 332.654 80.9973C333.615 82.7324 336.295 81.1836 335.334 79.4471C333.955 76.9539 332.576 74.4608 331.196 71.9676C330.236 70.2325 327.555 71.7813 328.517 73.5192Z" fill="white"/>
<path fill-rule="evenodd" clip-rule="evenodd" d="M344.675 73.5192C346.055 76.0124 347.434 78.5041 348.813 80.9973C349.772 82.7324 352.454 81.1836 351.493 79.4471C350.114 76.9539 348.734 74.4608 347.355 71.9676C346.395 70.2325 343.714 71.7813 344.675 73.5192Z" fill="white"/>
<path fill-rule="evenodd" clip-rule="evenodd" d="M360.291 73.5192C361.67 76.0124 363.05 78.5041 364.429 80.9973C365.388 82.7324 368.07 81.1836 367.109 79.4471C365.729 76.9539 364.35 74.4608 362.971 71.9676C362.01 70.2325 359.33 71.7813 360.291 73.5192Z" fill="white"/>
<path fill-rule="evenodd" clip-rule="evenodd" d="M77.0313 57.4069L76.6099 54.4046L63.7915 56.276L53.4741 50.2036L63.7899 44.1328L76.6099 46.0042L77.0313 43.0035L67.962 41.6774L82 33.4158L80.5134 30.7894L66.4738 39.0526L69.8843 30.3812L67.1225 29.2536L62.3033 41.5064L52.2259 47.4368V35.4356L60.2251 25.0542L57.8863 23.1796L52.2259 30.5264V14H49.2511V30.5264L43.5891 23.1796L41.2518 25.0542L49.2511 35.4356V47.7175L38.6967 41.5064L33.8759 29.2536L31.1141 30.3828L34.5246 39.0526L20.4866 30.7894L19 33.4158L33.038 41.6774L23.9671 43.0035L24.3901 46.0042L37.2085 44.1328L47.5259 50.2036L37.2069 56.276L24.3901 54.4046L23.9671 57.4069L33.038 58.7314L19 66.993L20.4866 69.6194L34.5262 61.3562L31.1141 70.0276L33.8759 71.1552L38.6952 58.9024L49.2511 52.6913V64.9248L41.2518 75.3094L43.5907 77.1808L49.2511 69.8356V85.394H52.2259V69.8356L57.8863 77.1808L60.2251 75.3094L52.2259 64.9264V52.972L62.3033 58.9024L67.1225 71.1552L69.8843 70.0276L66.4738 61.3562L80.5134 69.6194L82 66.993L67.962 58.7314L77.0313 57.4069Z" fill="white"/>
<path fill-rule="evenodd" clip-rule="evenodd" d="M807.702 237.744C806.68 237.744 805.659 237.853 804.662 238.069C801.471 230.659 794.028 225.715 785.975 225.715C775.924 225.715 767.567 232.818 765.903 242.681C765.88 242.681 765.857 242.681 765.833 242.681C759.262 242.681 753.915 248.045 753.915 254.64C753.915 261.231 759.262 266.593 765.833 266.593H807.702C815.628 266.593 822.076 260.123 822.076 252.169C822.076 244.215 815.628 237.744 807.702 237.744Z" fill="white"/>
<path fill-rule="evenodd" clip-rule="evenodd" d="M748.756 219.282C749.327 219.92 750.32 219.978 750.962 219.412C751.606 218.844 751.665 217.857 751.093 217.219L741.909 206.939C741.339 206.301 740.347 206.242 739.703 206.81C739.061 207.377 739.002 208.363 739.572 209.003L748.756 219.282Z" fill="#F8E71C"/>
<path fill-rule="evenodd" clip-rule="evenodd" d="M747.658 244.705L737.533 254.068C736.904 254.651 736.868 255.638 737.452 256.264C738.039 256.89 739.033 256.925 739.662 256.343L749.788 246.979C750.417 246.398 750.453 245.41 749.868 244.784C749.282 244.159 748.287 244.123 747.658 244.705Z" fill="#F8E71C"/>
<path fill-rule="evenodd" clip-rule="evenodd" d="M788.32 208.995C787.734 208.37 786.74 208.334 786.111 208.915L775.985 218.279C775.356 218.862 775.32 219.848 775.906 220.475C776.491 221.1 777.485 221.136 778.114 220.553L788.24 211.189C788.869 210.608 788.905 209.62 788.32 208.995Z" fill="#F8E71C"/>
<path fill-rule="evenodd" clip-rule="evenodd" d="M764.388 215.051C765.245 215.117 766 214.474 766.067 213.623L767.147 199.919C767.214 199.068 766.567 198.316 765.71 198.249C764.853 198.182 764.097 198.825 764.03 199.677L762.952 213.38C762.885 214.233 763.53 214.984 764.388 215.051Z" fill="#F8E71C"/>
<path fill-rule="evenodd" clip-rule="evenodd" d="M745.287 231.196C745.365 230.347 744.73 229.586 743.875 229.507L730.103 228.233C729.246 228.155 728.482 228.785 728.403 229.637C728.323 230.488 728.958 231.248 729.813 231.327L743.585 232.6C744.442 232.679 745.206 232.048 745.287 231.196Z" fill="#F8E71C"/>
<path fill-rule="evenodd" clip-rule="evenodd" d="M751.211 231.696C751.779 225.403 757.393 220.742 763.725 221.307C766.924 221.593 769.7 223.159 771.594 225.45C772.283 224.776 773.035 224.134 773.851 223.545C771.471 220.687 767.992 218.733 763.989 218.377C756.032 217.667 748.977 223.524 748.263 231.432C747.801 236.544 750.107 241.268 753.938 244.171C754.371 243.432 754.954 242.624 755.729 241.833C752.68 239.523 750.844 235.763 751.211 231.696Z" fill="#F8E71C"/>
<path fill-rule="evenodd" clip-rule="evenodd" d="M74.9506 257.862L64.0325 247.798C63.355 247.174 63.321 246.118 63.9597 245.453C64.5985 244.79 65.677 244.758 66.3562 245.383L77.2743 255.445C77.9518 256.071 77.9842 257.125 77.3454 257.79C76.7083 258.455 75.6298 258.487 74.9506 257.862Z" fill="#F8E71C"/>
<path fill-rule="evenodd" clip-rule="evenodd" d="M33.238 219.665L22.3198 209.603C21.6407 208.978 21.6083 207.923 22.2471 207.258C22.8858 206.593 23.9627 206.562 24.6419 207.187L35.56 217.251C36.2391 217.876 36.2715 218.931 35.6328 219.596C34.994 220.259 33.9155 220.291 33.238 219.665Z" fill="#F8E71C"/>
<path fill-rule="evenodd" clip-rule="evenodd" d="M24.5109 257.736L34.5316 246.815C35.1541 246.137 36.2311 246.08 36.9248 246.69C37.6185 247.299 37.6751 248.354 37.0525 249.033L27.0318 259.955C26.4093 260.632 25.3323 260.689 24.6402 260.08C23.9465 259.47 23.8883 258.416 24.5109 257.736Z" fill="#F8E71C"/>
<path fill-rule="evenodd" clip-rule="evenodd" d="M62.54 216.016L72.5607 205.094C73.1832 204.416 74.2601 204.359 74.9539 204.969C75.6459 205.578 75.7041 206.633 75.0816 207.312L65.0609 218.234C64.4384 218.911 63.3614 218.968 62.6677 218.359C61.9756 217.749 61.9174 216.695 62.54 216.016Z" fill="#F8E71C"/>
<path fill-rule="evenodd" clip-rule="evenodd" d="M48.8276 267.957L48.6562 253.276C48.6465 252.364 49.4001 251.609 50.3315 251.599C51.2629 251.588 52.0342 252.326 52.0455 253.238L52.2169 267.919C52.2266 268.832 51.4731 269.586 50.5417 269.597C49.6103 269.608 48.8389 268.87 48.8276 267.957Z" fill="#F8E71C"/>
<path fill-rule="evenodd" clip-rule="evenodd" d="M47.99 212.043L47.8186 197.362C47.8073 196.449 48.5608 195.695 49.4922 195.684C50.4236 195.673 51.1949 196.411 51.2063 197.324L51.3777 212.005C51.389 212.917 50.6338 213.672 49.7024 213.682C48.771 213.693 47.9997 212.955 47.99 212.043Z" fill="#F8E71C"/>
<path fill-rule="evenodd" clip-rule="evenodd" d="M13.9695 230.959L28.9642 231.007C29.8956 231.01 30.6556 231.759 30.6523 232.671C30.6507 233.583 29.8859 234.327 28.9528 234.324L13.9598 234.278C13.0268 234.275 12.2668 233.526 12.27 232.614C12.2733 231.7 13.0381 230.956 13.9695 230.959Z" fill="#F8E71C"/>
<path fill-rule="evenodd" clip-rule="evenodd" d="M71.0811 230.958L86.0757 231.003C87.0071 231.007 87.7671 231.756 87.7639 232.668C87.7607 233.581 86.9958 234.325 86.0644 234.322L71.0698 234.275C70.1384 234.271 69.3784 233.523 69.3816 232.611C69.3848 231.699 70.1497 230.954 71.0811 230.958Z" fill="#F8E71C"/>
<path fill-rule="evenodd" clip-rule="evenodd" d="M49.5974 217.259C40.9366 217.259 33.8896 224.159 33.8896 232.639C33.8896 241.121 40.9366 248.021 49.5974 248.021C58.2598 248.021 65.3068 241.121 65.3068 232.639C65.3068 224.159 58.2598 217.259 49.5974 217.259Z" fill="#F8E71C"/>
<path fill-rule="evenodd" clip-rule="evenodd" d="M663.107 235.74C662.012 235.74 660.917 235.86 659.848 236.095C656.429 228.023 648.452 222.64 639.82 222.64C629.048 222.64 620.091 230.375 618.309 241.118C618.282 241.118 618.257 241.118 618.233 241.118C611.19 241.118 605.459 246.962 605.459 254.142C605.459 261.322 611.19 267.163 618.233 267.163H663.107C671.602 267.163 678.513 260.115 678.513 251.452C678.513 242.788 671.602 235.74 663.107 235.74Z" fill="white"/>
<path fill-rule="evenodd" clip-rule="evenodd" d="M600.287 220.268C600.855 220.895 601.827 220.938 602.447 220.365C603.068 219.79 603.111 218.808 602.543 218.182L593.404 208.102C592.837 207.475 591.863 207.432 591.244 208.007C590.624 208.58 590.581 209.562 591.149 210.188L600.287 220.268Z" fill="#F8E71C"/>
<path fill-rule="evenodd" clip-rule="evenodd" d="M599.596 245.56L589.83 255.022C589.223 255.61 589.201 256.592 589.784 257.205C590.366 257.818 591.34 257.838 591.947 257.25L601.713 247.79C602.318 247.202 602.34 246.218 601.757 245.605C601.175 244.993 600.201 244.972 599.596 245.56Z" fill="#F8E71C"/>
<path fill-rule="evenodd" clip-rule="evenodd" d="M615.515 215.827C616.355 215.88 617.084 215.23 617.137 214.383L617.987 200.742C618.04 199.893 617.396 199.157 616.558 199.103C615.718 199.05 614.988 199.7 614.936 200.548L614.086 214.188C614.033 215.037 614.677 215.773 615.515 215.827Z" fill="#F8E71C"/>
<path fill-rule="evenodd" clip-rule="evenodd" d="M597.071 232.167C597.137 231.32 596.503 230.573 595.665 230.507L582.173 229.45C581.335 229.383 580.596 230.023 580.53 230.87C580.465 231.717 581.097 232.463 581.937 232.53L595.429 233.587C596.267 233.653 597.007 233.013 597.071 232.167Z" fill="#F8E71C"/>
<path fill-rule="evenodd" clip-rule="evenodd" d="M620.941 221.127C619.214 220.163 617.269 219.297 615.177 219.14C607.381 218.553 600.566 224.483 599.987 232.357C599.612 237.443 601.939 242.107 605.729 244.935C606.144 244.193 606.701 243.382 607.446 242.583C604.429 240.332 602.576 236.622 602.875 232.573C603.337 226.308 608.759 221.59 614.96 222.057C616.177 222.148 615.847 221.833 616.916 222.278L617.33 222.437C617.33 222.437 618.63 221.088 620.941 221.127Z" fill="#F8E71C"/>
<path fill-rule="evenodd" clip-rule="evenodd" d="M670.686 231.175C670.686 224.238 665.153 218.595 658.351 218.595C657.474 218.595 656.597 218.69 655.741 218.878C653.005 212.415 646.617 208.103 639.705 208.103C631.081 208.103 623.908 214.298 622.48 222.9C622.46 222.9 622.439 222.9 622.419 222.9C616.781 222.9 612.191 227.578 612.191 233.328C612.191 235.045 612.612 236.657 613.337 238.083C613.916 237.793 614.728 237.503 615.774 237.337C615.086 236.16 614.673 234.797 614.673 233.328C614.673 228.968 618.149 225.42 622.419 225.42C622.705 225.42 623.016 225.443 623.399 225.492L624.66 225.65L624.787 224.367C625.566 216.533 631.979 210.625 639.705 210.625C646.025 210.625 651.698 214.717 653.822 220.807L654.223 221.957L655.366 221.587C656.337 221.273 657.34 221.115 658.351 221.115C663.785 221.115 668.206 225.628 668.206 231.175C668.206 231.74 668.152 232.292 668.063 232.832C668.744 232.993 669.597 233.275 670.414 233.75C670.586 232.918 670.686 232.058 670.686 231.175Z" fill="white"/>
</svg>
