<svg width="100" height="100" viewBox="0 0 100 100" fill="none" xmlns="http://www.w3.org/2000/svg">
<path fill-rule="evenodd" clip-rule="evenodd" d="M71.9875 33.9959C70.843 33.9959 69.7014 34.1193 68.5853 34.3633C65.0185 26.0205 56.6924 20.4553 47.6855 20.4553C36.4436 20.4553 27.0964 28.4506 25.2357 39.5554C25.2088 39.554 25.1818 39.554 25.1563 39.554C17.8059 39.554 11.8254 45.5944 11.8254 53.0166C11.8254 60.4373 17.8059 66.4749 25.1563 66.4749H71.9875C80.8525 66.4749 88.0654 59.1889 88.0654 50.2361C88.0654 41.2819 80.8525 33.9959 71.9875 33.9959Z" fill="white"/>
<path d="M54.1806 76.799C54.1806 78.4929 52.8093 79.8647 51.1174 79.8647C49.4255 79.8647 48.0527 78.4929 48.0527 76.799C48.0527 75.1067 49.4255 73.7349 51.1174 73.7349C52.8093 73.7349 54.1806 75.1067 54.1806 76.799" stroke="white" stroke-width="2"/>
<path d="M74.3581 75.7823C74.3581 77.4761 72.9853 78.8479 71.2935 78.8479C69.6016 78.8479 68.2288 77.4761 68.2288 75.7823C68.2288 74.0899 69.6016 72.7181 71.2935 72.7181C72.9853 72.7181 74.3581 74.0899 74.3581 75.7823" stroke="white" stroke-width="2"/>
<path d="M33.9442 77.1115C33.9442 78.8054 32.5729 80.1772 30.881 80.1772C29.1877 80.1772 27.8163 78.8054 27.8163 77.1115C27.8163 75.4192 29.1877 74.0474 30.881 74.0474C32.5729 74.0474 33.9442 75.4192 33.9442 77.1115" stroke="white" stroke-width="2"/>
</svg>
