<svg width="100" height="100" viewBox="0 0 100 100" fill="none" xmlns="http://www.w3.org/2000/svg">
<path fill-rule="evenodd" clip-rule="evenodd" d="M19.0511 60.229H12.4197C8.09678 60.229 4.58023 56.6952 4.58023 52.3507C4.58023 48.0046 8.09678 44.4694 12.4197 44.4694C12.7077 44.4694 13.0238 44.4929 13.4122 44.5399L14.6883 44.6985L14.8153 43.4207C15.604 35.6128 22.0936 29.726 29.9139 29.726C33.3093 29.726 36.5143 30.8849 39.1018 32.8706C39.6601 32.2391 40.245 31.6413 40.8623 31.0846C37.7903 28.6465 33.9429 27.2145 29.9139 27.2145C21.1838 27.2145 13.9262 33.3862 12.4818 41.9593C12.4611 41.9593 12.4404 41.9593 12.4197 41.9593C6.7129 41.9593 2.06946 46.6211 2.06946 52.3507C2.06946 58.0788 6.7129 62.7406 12.4197 62.7406H19.1102C19.0511 62.2207 19.0098 61.6934 19.0098 61.1558C19.0098 60.843 19.0304 60.536 19.0511 60.229Z" fill="white"/>
<path fill-rule="evenodd" clip-rule="evenodd" d="M80.9313 41.9842C79.8176 41.9842 78.707 42.1032 77.6215 42.3396C74.1492 34.2674 66.0468 28.8829 57.2798 28.8829C46.3402 28.8829 37.2424 36.6188 35.4317 47.3627C35.4051 47.3627 35.38 47.3627 35.3549 47.3627C28.2007 47.3627 22.3816 53.2054 22.3816 60.3862C22.3816 67.5669 28.2007 73.4081 35.3549 73.4081H80.9313C89.5594 73.4081 96.5793 66.3596 96.5793 57.6969C96.5793 49.0327 89.5594 41.9842 80.9313 41.9842Z" fill="white"/>
</svg>
