<svg width="100" height="100" viewBox="0 0 100 100" fill="none" xmlns="http://www.w3.org/2000/svg">
<path fill-rule="evenodd" clip-rule="evenodd" d="M15.592 66.8071H87.3505C88.3829 66.8071 89.2276 66.0146 89.2276 65.0444C89.2276 64.0758 88.3829 63.2833 87.3505 63.2833H15.592C14.5596 63.2833 13.7149 64.0758 13.7149 65.0444C13.7149 66.0146 14.5596 66.8071 15.592 66.8071Z" fill="white"/>
<path fill-rule="evenodd" clip-rule="evenodd" d="M23.9496 78.1921H78.9947C80.0271 78.1921 80.8718 77.3997 80.8718 76.4294C80.8718 75.4608 80.0271 74.6683 78.9947 74.6683H23.9496C22.9172 74.6683 22.0707 75.4608 22.0707 76.4294C22.0707 77.3997 22.9172 78.1921 23.9496 78.1921Z" fill="white"/>
<path fill-rule="evenodd" clip-rule="evenodd" d="M72.7489 23.68C71.5757 23.68 70.4059 23.8017 69.2623 24.04C65.6054 15.8433 57.0714 10.375 47.8387 10.375C36.3169 10.375 26.7349 18.2317 24.8282 29.1417C24.8004 29.1417 24.7743 29.1417 24.7465 29.1417C17.2137 29.1417 11.0834 35.075 11.0834 42.3683C11.0834 49.6617 17.2137 55.5933 24.7465 55.5933H72.7489C81.8356 55.5933 89.2276 48.435 89.2276 39.6367C89.2276 30.8383 81.8356 23.68 72.7489 23.68Z" fill="white"/>
</svg>
