<svg width="100" height="100" viewBox="0 0 100 100" fill="none" xmlns="http://www.w3.org/2000/svg">
<path fill-rule="evenodd" clip-rule="evenodd" d="M82.7017 54.7437C81.6797 54.7437 80.6592 54.8528 79.6617 55.0693C76.471 47.659 69.0283 42.7151 60.9746 42.7151C50.9242 42.7151 42.5675 49.8176 40.9034 59.6811C40.8804 59.6811 40.8575 59.6811 40.8329 59.6811C34.2616 59.6811 28.9153 65.0451 28.9153 71.6397C28.9153 78.2311 34.2616 83.5935 40.8329 83.5935H82.7017C90.6277 83.5935 97.0762 77.1225 97.0762 69.1686C97.0762 61.2146 90.6277 54.7437 82.7017 54.7437Z" fill="white"/>
<path fill-rule="evenodd" clip-rule="evenodd" d="M23.7559 36.2816C24.3275 36.9197 25.3201 36.9783 25.9621 36.4118C26.6059 35.8437 26.6648 34.8572 26.0932 34.219L16.9093 23.9388C16.3393 23.3007 15.3467 23.2421 14.703 23.8102C14.0609 24.3767 14.002 25.3632 14.572 26.003L23.7559 36.2816Z" fill="#F8E71C"/>
<path fill-rule="evenodd" clip-rule="evenodd" d="M22.6584 61.7046L12.5328 71.0684C11.9038 71.6512 11.8678 72.6377 12.4525 73.2644C13.0389 73.8895 14.0331 73.9253 14.6621 73.3426L24.7878 63.9788C25.4167 63.3977 25.4528 62.4095 24.868 61.7844C24.2816 61.1593 23.2874 61.1235 22.6584 61.7046Z" fill="#F8E71C"/>
<path fill-rule="evenodd" clip-rule="evenodd" d="M63.3201 25.9949C62.7337 25.3697 61.7395 25.3339 61.1105 25.9151L50.9848 35.2788C50.3559 35.8616 50.3198 36.8481 50.9062 37.4749C51.491 38.1 52.4852 38.1358 53.1142 37.553L63.2398 28.1893C63.8688 27.6081 63.9048 26.62 63.3201 25.9949Z" fill="#F8E71C"/>
<path fill-rule="evenodd" clip-rule="evenodd" d="M39.3883 32.0507C40.2449 32.1174 41 31.4744 41.0672 30.623L42.1466 16.9193C42.2137 16.0679 41.5667 15.3158 40.7101 15.249C39.8535 15.1823 39.0967 15.8253 39.0296 16.6767L37.9518 30.3804C37.8847 31.2334 38.53 31.9839 39.3883 32.0507Z" fill="#F8E71C"/>
<path fill-rule="evenodd" clip-rule="evenodd" d="M20.2868 48.1963C20.3654 47.3465 19.7299 46.5863 18.8749 46.5065L5.10313 45.2335C4.24649 45.1553 3.48158 45.7853 3.40296 46.6367C3.3227 47.4881 3.95822 48.2484 4.81322 48.3265L18.5849 49.5995C19.4416 49.6793 20.2065 49.0477 20.2868 48.1963Z" fill="#F8E71C"/>
<path fill-rule="evenodd" clip-rule="evenodd" d="M26.2111 48.696C26.7795 42.4026 32.3927 37.7419 38.7249 38.3067C41.9238 38.5932 44.7001 40.1593 46.5935 42.4498C47.2831 41.7758 48.0349 41.1344 48.8506 40.5451C46.4707 37.6865 42.9917 35.733 38.9886 35.3765C31.0315 34.6667 23.977 40.5239 23.2628 48.4323C22.8009 53.5439 25.1071 58.2681 28.9383 61.1707C29.3707 60.4316 29.9538 59.6242 30.7285 58.833C27.6803 56.523 25.8442 52.7626 26.2111 48.696Z" fill="#F8E71C"/>
</svg>
