<svg width="1em" height="1em" viewBox="0 0 100 100" fill="none" xmlns="http://www.w3.org/2000/svg">
<path fill-rule="evenodd" clip-rule="evenodd" d="M72.3446 27.697C71.16 27.697 69.9785 27.8225 68.8216 28.0735C65.1277 19.4822 56.5077 13.7516 47.18 13.7516C35.5415 13.7516 25.8616 21.9847 23.9354 33.4215C23.9077 33.42 23.88 33.42 23.8539 33.42C16.2431 33.42 10.0508 39.6404 10.0508 47.2842C10.0508 54.9266 16.2431 61.1439 23.8539 61.1439H72.3446C81.5231 61.1439 88.9923 53.6409 88.9923 44.4205C88.9923 35.1985 81.5231 27.697 72.3446 27.697Z" fill="white"/>
<path fill-rule="evenodd" clip-rule="evenodd" d="M24.0877 70.3674C25.4969 72.9281 26.9077 75.4888 28.3169 78.0495C29.2985 79.8312 32.04 78.2409 31.0569 76.4562C29.6462 73.8955 28.2369 71.3347 26.8262 68.774C25.8446 66.9924 23.1046 68.5842 24.0877 70.3674Z" fill="white"/>
<path fill-rule="evenodd" clip-rule="evenodd" d="M39.8031 70.3674C41.2138 72.9281 42.6246 75.4888 44.0338 78.0495C45.0154 79.8312 47.7569 78.2409 46.7738 76.4562C45.3631 73.8955 43.9538 71.3347 42.5431 68.774C41.5615 66.9924 38.8215 68.5842 39.8031 70.3674Z" fill="white"/>
<path fill-rule="evenodd" clip-rule="evenodd" d="M56.3231 70.3674C57.7339 72.9281 59.1431 75.4888 60.5539 78.0495C61.5354 79.8312 64.2754 78.2409 63.2939 76.4562C61.8831 73.8955 60.4723 71.3347 59.0631 68.774C58.0816 66.9924 55.34 68.5842 56.3231 70.3674Z" fill="white"/>
<path fill-rule="evenodd" clip-rule="evenodd" d="M72.2877 70.3674C73.6985 72.9281 75.1077 75.4888 76.5185 78.0495C77.5 79.8312 80.24 78.2409 79.2585 76.4562C77.8477 73.8955 76.4369 71.3347 75.0277 68.774C74.0462 66.9924 71.3046 68.5842 72.2877 70.3674Z" fill="white"/>
<path fill-rule="evenodd" clip-rule="evenodd" d="M37.0031 79.4408C38.4123 82.0015 39.8231 84.5622 41.2323 87.123C42.2139 88.9046 44.9554 87.3143 43.9723 85.5296C42.5631 82.9689 41.1523 80.4082 39.7416 77.8474C38.7616 76.0658 36.02 77.6561 37.0031 79.4408Z" fill="white"/>
<path fill-rule="evenodd" clip-rule="evenodd" d="M52.7169 79.4362C54.1277 81.997 55.5369 84.5577 56.9477 87.1184C57.9292 88.9015 60.6692 87.3097 59.6877 85.525C58.2769 82.9643 56.8661 80.4036 55.4569 77.8429C54.4754 76.0612 51.7338 77.6531 52.7169 79.4362Z" fill="white"/>
<path fill-rule="evenodd" clip-rule="evenodd" d="M68.7477 78.8025C70.1569 81.3632 71.5677 83.9239 72.9769 86.4847C73.9585 88.2663 76.7 86.676 75.7169 84.8913C74.3062 82.3306 72.8969 79.7699 71.4862 77.2091C70.5046 75.4275 67.7646 77.0178 68.7477 78.8025Z" fill="white"/>
</svg>
