<svg width="100" height="100" viewBox="0 0 100 100" fill="none" xmlns="http://www.w3.org/2000/svg">
<path fill-rule="evenodd" clip-rule="evenodd" d="M72.0358 22.266C70.9014 22.266 69.7684 22.3864 68.6608 22.6272C65.1198 14.3938 56.8583 8.90161 47.9184 8.90161C36.7633 8.90161 27.4857 16.7934 25.6392 27.7512C25.6124 27.7512 25.5871 27.7512 25.5604 27.7512C18.2672 27.7512 12.3322 33.711 12.3322 41.0358C12.3322 48.3592 18.2672 54.3176 25.5604 54.3176H72.0358C80.8335 54.3176 87.9916 47.1286 87.9916 38.2918C87.9916 29.455 80.8335 22.266 72.0358 22.266Z" fill="white"/>
<path fill-rule="evenodd" clip-rule="evenodd" d="M25.7856 63.1559C27.1367 65.6101 28.4878 68.0643 29.8389 70.5185C30.7805 72.2265 33.4067 70.7019 32.4651 68.9911C31.114 66.5369 29.7615 64.0841 28.4104 61.6299C27.4702 59.9219 24.8426 61.4465 25.7856 63.1559Z" fill="white"/>
<path fill-rule="evenodd" clip-rule="evenodd" d="M71.9823 63.1559C73.3334 65.6101 74.6845 68.0643 76.0371 70.5185C76.9772 72.2265 79.6034 70.7019 78.6619 68.9911C77.3108 66.5369 75.9596 64.0841 74.6071 61.6299C73.667 59.9219 71.0408 61.4465 71.9823 63.1559Z" fill="white"/>
<path fill-rule="evenodd" clip-rule="evenodd" d="M68.5876 71.2393C69.9402 73.6935 71.2913 76.1477 72.6424 78.6005C73.5839 80.3085 76.2102 78.7839 75.2686 77.0745C73.9175 74.6203 72.5664 72.1661 71.2139 69.7133C70.2737 68.0053 67.6461 69.5299 68.5876 71.2393Z" fill="white"/>
<path fill-rule="evenodd" clip-rule="evenodd" d="M15.1807 62.0596C16.5332 64.5124 17.8843 66.9666 19.2355 69.4208C20.177 71.1288 22.8032 69.6042 21.8617 67.8934C20.5106 65.4406 19.1581 62.9864 17.8069 60.5322C16.8668 58.8242 14.2392 60.3488 15.1807 62.0596Z" fill="white"/>
<path fill-rule="evenodd" clip-rule="evenodd" d="M25.7856 73.5397C27.1367 75.9925 28.4878 78.4467 29.8389 80.9009C30.7805 82.6089 33.4067 81.0843 32.4651 79.3735C31.114 76.9207 29.7615 74.4665 28.4104 72.0123C27.4702 70.3043 24.8426 71.8289 25.7856 73.5397Z" fill="white"/>
<path fill-rule="evenodd" clip-rule="evenodd" d="M55.123 54.1664L54.7993 54.3176H55.1947L55.123 54.1664Z" fill="white"/>
<path fill-rule="evenodd" clip-rule="evenodd" d="M40.4521 54.032L39.999 54.3176H40.6351L40.4521 54.032Z" fill="white"/>
<path fill-rule="evenodd" clip-rule="evenodd" d="M61.5323 73.4416H56.6359C55.9871 73.4416 55.3847 73.7622 55.0245 74.2998C54.6642 74.8374 54.598 75.515 54.8485 76.1128L59.4451 87.051L40.7238 67.3026H45.4105C46.117 67.3026 46.7672 66.919 47.1078 66.303C47.4484 65.6856 47.4245 64.9338 47.0445 64.3402L42.4141 57.1008H39.5317L44.5069 64.882H39.5767C38.8013 64.882 38.1032 65.3384 37.7964 66.0454C37.491 66.7524 37.6359 67.5714 38.1665 68.1314L59.5422 90.6798C59.925 91.0844 60.4303 91.293 60.944 91.293C61.3085 91.293 61.6759 91.188 62.0052 90.9752C62.8046 90.46 63.1072 89.4898 62.7399 88.6148L57.3805 75.8608H62.3134C62.9805 75.8608 63.5927 75.5262 63.9502 74.9662C64.3063 74.4048 64.3499 73.7118 64.067 73.1154L56.5079 57.1008H53.8197L61.5323 73.4416Z" fill="#F8E71C"/>
</svg>
