<svg width="100" height="100" viewBox="0 0 100 100" fill="none" xmlns="http://www.w3.org/2000/svg">
<path fill-rule="evenodd" clip-rule="evenodd" d="M69.053 26.7369C67.9246 26.7369 66.7976 26.8594 65.6958 27.1014C62.1734 18.8245 53.9554 13.3032 45.0626 13.3032C33.9648 13.3032 24.7374 21.2354 22.9006 32.2526C22.874 32.2511 22.8488 32.2511 22.8222 32.2511C15.566 32.2511 9.66357 38.2425 9.66357 45.606C9.66357 52.9696 15.566 58.9595 22.8222 58.9595H69.053C77.8044 58.9595 84.9248 51.7311 84.9248 42.8475C84.9248 33.9654 77.8044 26.7369 69.053 26.7369Z" fill="white"/>
<path d="M48.4374 68.1935C48.4374 69.8725 47.0822 71.2349 45.412 71.2349C43.7418 71.2349 42.3866 69.8725 42.3866 68.1935C42.3866 66.5145 43.7418 65.1521 45.412 65.1521C47.0822 65.1521 48.4374 66.5145 48.4374 68.1935" stroke="white" stroke-width="2"/>
<path d="M54.4868 82.7898C54.4868 84.4702 53.133 85.8312 51.4628 85.8312C49.7912 85.8312 48.4374 84.4702 48.4374 82.7898C48.4374 81.1107 49.7912 79.7498 51.4628 79.7498C53.133 79.7498 54.4868 81.1107 54.4868 82.7898" stroke="white" stroke-width="2"/>
<path d="M69.3548 68.1935C69.3548 69.8725 68.001 71.2349 66.3294 71.2349C64.6592 71.2349 63.3054 69.8725 63.3054 68.1935C63.3054 66.5145 64.6592 65.1521 66.3294 65.1521C68.001 65.1521 69.3548 66.5145 69.3548 68.1935" stroke="white" stroke-width="2"/>
<path d="M74.1945 82.7898C74.1945 84.4702 72.8407 85.8312 71.1691 85.8312C69.4989 85.8312 68.1451 84.4702 68.1451 82.7898C68.1451 81.1107 69.4989 79.7498 71.1691 79.7498C72.8407 79.7498 74.1945 81.1107 74.1945 82.7898" stroke="white" stroke-width="2"/>
<path d="M29.4603 69.5124C29.4603 71.1914 28.1051 72.5538 26.4349 72.5538C24.7647 72.5538 23.4095 71.1914 23.4095 69.5124C23.4095 67.8333 24.7647 66.4709 26.4349 66.4709C28.1051 66.4709 29.4603 67.8333 29.4603 69.5124" stroke="white" stroke-width="2"/>
<path d="M35.5098 84.1085C35.5098 85.7875 34.156 87.1499 32.4844 87.1499C30.8142 87.1499 29.4604 85.7875 29.4604 84.1085C29.4604 82.4294 30.8142 81.0685 32.4844 81.0685C34.156 81.0685 35.5098 82.4294 35.5098 84.1085" stroke="white" stroke-width="2"/>
</svg>
